<!-- icon666.com - MILLIONS vector ICONS FREE --><svg id="Capa_1" enable-background="new 0 0 512.042 512.042" viewBox="0 0 512.042 512.042" xmlns="http://www.w3.org/2000/svg"><path d="m476.282 162.542c38.06 38.06 33.4 102.35-10.6 146.36-8.94 8.94-17.6 16.54-29.21 22.65 3.68 14.87 5.55 29.8 5.55 44.47 0 111.68-99.4 126-186 126s-186-14.32-186-126c0-14.45 1.82-29.19 5.42-43.91-11.87-6.12-19.79-13.92-29.08-23.22-44-44-48.66-108.29-10.6-146.35 10.11-10.12 20.16-17.59 34.55-21.78-.16-1.5-.29-3.06-.29-4.74 0-70.65 48.76-126 111-126 28.29 0 54.68 11.48 75 32.46 20.32-20.98 46.71-32.46 75-32.46 62.24 0 111 55.35 111 126 0 1.81-.15 3.49-.33 5.11 14.04 4.26 24.79 11.6 34.59 21.41z" fill="#ecf2f3"></path><g fill="#eaaacb"><ellipse cx="406.022" cy="241.022" rx="45" ry="29.995" transform="matrix(.707 -.707 .707 .707 -51.507 357.695)" fill="#eaaacb" style="fill: rgb(153, 0, 255);"></ellipse><path d="m337.282 319.892c26.2 9.96 44 37.84 37.34 69.38-4.71 22.28-23.09 40.58-45.36 45.33-25.15 5.38-48.37-5.01-61.66-23.14-5.53-7.54-17.63-7.54-23.16 0-13.31 18.16-36.59 28.55-61.78 23.12-22.29-4.81-40.64-23.18-45.28-45.5-6.63-31.95 11.76-60.01 38.45-69.58 13.12-4.7 20.8-16.82 20.19-30.74-1.26-28.23 17.77-55.41 47.36-61.45 41.44-8.46 73.8 24.75 72.7 60.74-.44 14.43 7.71 26.72 21.2 31.84z" fill="#eaaacb" style="fill: rgb(153, 0, 255);"></path><ellipse cx="331.022" cy="136.022" rx="45" ry="60" fill="#eaaacb" style="fill: rgb(153, 0, 255);"></ellipse><ellipse cx="181.022" cy="136.022" rx="45" ry="60" fill="#eaaacb" style="fill: rgb(153, 0, 255);"></ellipse><ellipse cx="106.022" cy="241.022" rx="29.995" ry="45" transform="matrix(.707 -.707 .707 .707 -139.375 145.562)" fill="#eaaacb" style="fill: rgb(153, 0, 255);"></ellipse></g><path d="m181.022 206.022c33.262 0 55-34.754 55-70 0-35.321-21.8-70-55-70-33.262 0-55 34.754-55 70 0 35.321 21.8 70 55 70zm0-120c18.972 0 35 22.897 35 50s-16.028 50-35 50-35-22.897-35-50 16.028-50 35-50z" fill="#000000"></path><path d="m331.022 66.022c-33.262 0-55 34.754-55 70 0 35.321 21.8 70 55 70 33.262 0 55-34.754 55-70 0-35.321-21.8-70-55-70zm0 120c-18.972 0-35-22.897-35-50s16.028-50 35-50 35 22.897 35 50-16.028 50-35 50z" fill="#000000"></path><path d="m67.131 202.13c-18.003 18.005-7.967 48.605 10.608 67.171 18.944 18.954 49.525 28.26 67.174 10.612 17.978-17.98 8.006-48.565-10.609-67.172-18.694-18.703-49.251-28.532-67.173-10.611zm53.032 24.755c10.444 10.438 19.49 30.004 10.608 38.886-9.159 9.16-28.946-.662-38.889-10.612-10.444-10.438-19.49-30.004-10.608-38.886 9.045-9.046 28.83.546 38.885 10.608.001.001.003.002.004.004z" fill="#000000"></path><path d="m367.131 279.913c17.999 17.997 48.593 7.978 67.173-10.611 18.704-18.696 28.528-49.251 10.609-67.172-18.007-18.004-48.606-7.966-67.17 10.608-18.7 18.691-28.536 49.25-10.612 67.175zm24.754-53.032c13.048-13.057 31.331-18.164 38.885-10.608 9.137 9.137-.604 28.888-10.608 38.886-.001.002-.002.003-.004.004-9.791 9.798-29.715 19.78-38.885 10.608-9.159-9.16.663-28.947 10.612-38.89z" fill="#000000"></path><path d="m331.348 444.382c26.21-5.591 47.533-26.907 53.058-53.044 7.274-34.452-11.05-68.431-43.571-80.794-.001 0-.003-.001-.005-.002-9.408-3.57-15.061-12.071-14.753-22.185 1.3-42.521-36.984-80.58-84.695-70.844-33.745 6.887-56.86 37.865-55.35 71.686.426 9.732-4.774 17.736-13.575 20.89-33.265 11.927-52.134 46.002-44.866 81.027 5.443 26.184 26.727 47.579 52.963 53.24 27.77 5.986 55.348-4.329 71.951-26.98 1.068-1.456 2.961-1.569 3.517-1.569.555 0 2.449.113 3.515 1.567 16.56 22.592 44.079 32.937 71.811 27.008zm-55.683-38.834c-4.474-6.1-11.817-9.741-19.644-9.741s-15.17 3.642-19.646 9.743c-11.862 16.183-31.637 23.564-51.605 19.256-18.338-3.956-33.8-19.484-37.598-37.757-5.915-28.504 11.638-50.821 32.031-58.133 17.097-6.125 27.62-22.059 26.808-40.6-1.088-24.39 15.837-46.403 39.37-51.207 34.287-6.999 61.633 20.25 60.705 50.638-.568 18.614 10.283 34.9 27.642 41.492 19.941 7.58 37.03 29.926 31.11 57.964-3.856 18.242-19.344 33.711-37.668 37.62-19.928 4.266-39.663-3.122-51.505-19.275z" fill="#000000"></path><circle cx="256.022" cy="502.021" r="10" fill="#000000"></circle><path d="m452.011 134.167c-.853-75.373-53.689-134.145-120.989-134.145-27.598 0-53.884 10.108-75 28.658-21.116-18.55-47.402-28.658-75-28.658-67.171 0-119.935 58.545-120.984 133.712-13.93 5.566-23.603 13.985-31.347 21.736-42.026 42.026-37.37 112.523 10.596 160.489 7.631 7.639 14.915 14.931 24.779 21.156-2.685 13.038-4.044 26.094-4.044 38.906 0 45.625 15.957 80.191 47.426 102.739 24.424 17.499 58.042 27.821 102.773 31.556 5.503.484 10.338-3.629 10.797-9.133s-3.63-10.338-9.133-10.797c-41.032-3.426-71.383-12.547-92.789-27.884-26.293-18.839-39.074-47.127-39.074-86.481 0-13.633 1.727-27.606 5.134-41.534 1.098-4.489-1.023-9.146-5.131-11.264-10.746-5.541-18.087-12.89-26.591-21.403-40.04-40.039-44.695-98.112-10.597-132.212 10.44-10.449 19.21-16.025 30.271-19.245 4.651-1.354 7.663-5.847 7.148-10.663-.115-1.082-.233-2.364-.233-3.679 0-65.047 44.364-116 101-116 25.359 0 49.443 10.447 67.817 29.417 3.925 4.053 10.436 4.059 14.366 0 18.374-18.97 42.458-29.417 67.817-29.417 56.636 0 101 50.953 101 116 0 1.396-.129 2.75-.269 4.005-.532 4.788 2.425 9.276 7.036 10.675 11.442 3.472 20.824 9.303 30.422 18.911 34.094 34.094 29.438 92.172-10.6 132.218-8.576 8.577-16.416 15.409-26.796 20.872-4.071 2.143-6.155 6.786-5.05 11.252 3.488 14.097 5.257 28.25 5.257 42.067 0 39.354-12.781 67.643-39.074 86.481-21.406 15.337-51.757 24.458-92.788 27.884-5.504.459-9.593 5.293-9.133 10.797.461 5.52 5.325 9.605 10.797 9.133 44.731-3.734 78.349-14.057 102.772-31.557 31.47-22.547 47.426-57.113 47.426-102.738 0-13.014-1.397-26.266-4.16-39.493 10.012-6.268 17.86-13.524 24.892-20.557 47.967-47.978 52.622-118.478 10.603-160.498-9.814-9.821-19.923-16.714-31.347-21.306z" fill="#000000"></path></svg>