<!-- icon666.com - MILLIONS vector ICONS FREE --><svg viewBox="0 0 128 128" xmlns="http://www.w3.org/2000/svg"><g><g><path d="m50.081 86.552-6.471-6.472 45.231-49.844a7.847 7.847 0 0 1 11.36-.276 7.847 7.847 0 0 1 -.276 11.36z" fill="#f8568d" style="fill: rgb(225, 190, 231);"></path><path d="m47.471 75.825 6.865 6.866 10.313-9.359-7.82-7.82z" fill="#7fe881" style="fill: rgb(170, 144, 174);"></path><path d="m55.447 77.72a14.186 14.186 0 0 0 -19.827-3.064 8.8 8.8 0 0 0 -1.481 1.411 12.265 12.265 0 0 0 -2.357 10.757c.743 3.208.78 7.655-3.228 10.59l-3.054 2.237s18.11 3.682 26.883-2.1c6.541-4.317 7.693-13.51 3.064-19.831z" fill="#f1f1fb"></path><path d="m37.292 85.41a1.7 1.7 0 0 1 -.264-.021 1.744 1.744 0 0 1 -1.469-1.973c.4-2.764 2.992-7.809 9.906-7.116a1.75 1.75 0 1 1 -.347 3.483c-5.09-.5-5.971 3.365-6.1 4.147a1.758 1.758 0 0 1 -1.726 1.48z" fill="#fff" style="fill: rgb(0, 0, 0);"></path></g><g fill="#541a9d"><path d="m101.439 28.723a9.6 9.6 0 0 0 -13.894.337l-7.552 8.323a1.75 1.75 0 0 0 2.592 2.351l7.552-8.322a6.1 6.1 0 1 1 8.613 8.612l-34.042 30.892-5.462-5.462 13.074-14.408a1.75 1.75 0 1 0 -2.592-2.352l-20.336 22.411a16 16 0 0 0 -2.957-.752 15.815 15.815 0 0 0 -11.85 2.892 10.584 10.584 0 0 0 -1.779 1.688 14.075 14.075 0 0 0 -2.729 12.286c.908 3.921.048 6.876-2.556 8.783l-3.055 2.236a1.75 1.75 0 0 0 .685 3.127 69.613 69.613 0 0 0 12.537 1.193 48.21 48.21 0 0 0 5.333-.279 1.75 1.75 0 1 0 -.387-3.478 57.445 57.445 0 0 1 -12.7-.242c3.469-2.748 4.729-7.037 3.549-12.129a10.569 10.569 0 0 1 1.988-9.23 7.162 7.162 0 0 1 1.182-1.133 12.534 12.534 0 0 1 18.047 16.661 1.75 1.75 0 0 0 2.965 1.859 16.082 16.082 0 0 0 -.809-17.9 15.912 15.912 0 0 0 -4.211-3.963l4.243-4.676 5.222 5.223-2.55 2.313a1.75 1.75 0 0 0 2.352 2.592l39.188-35.56a9.6 9.6 0 0 0 .336-13.893z" fill="#541a9d" style="fill: rgb(75, 68, 57);"></path><path d="m75.706 46.46a1.743 1.743 0 0 0 1.3-.574l.955-1.053a1.75 1.75 0 0 0 -2.592-2.351l-.955 1.053a1.75 1.75 0 0 0 1.3 2.925z" fill="#541a9d" style="fill: rgb(75, 68, 57);"></path><path d="m50.214 96.782c-.215.11-.436.214-.66.313a1.75 1.75 0 1 0 1.417 3.2q.42-.186.823-.39a1.75 1.75 0 1 0 -1.58-3.123z" fill="#541a9d" style="fill: rgb(75, 68, 57);"></path><path d="m45.465 76.3c-6.914-.693-9.505 4.352-9.905 7.116a1.743 1.743 0 0 0 1.468 1.973 1.7 1.7 0 0 0 .264.021 1.758 1.758 0 0 0 1.729-1.48c.126-.782 1.007-4.65 6.1-4.147a1.75 1.75 0 1 0 .347-3.483z" fill="#541a9d" style="fill: rgb(75, 68, 57);"></path></g></g></svg>