<!-- icon666.com - MILLIONS vector ICONS FREE --><svg clip-rule="evenodd" fill-rule="evenodd" image-rendering="optimizeQuality" shape-rendering="geometricPrecision" text-rendering="geometricPrecision" viewBox="0 0 173.397 173.397" xmlns="http://www.w3.org/2000/svg"><g id="Layer_x0020_1"><g fill="#4b4439" fill-rule="nonzero"><path d="m28.9413 45.3357 16.3944-16.3944.0001-.0001c4.8442-4.8442 11.2276-7.2665 17.6092-7.2665 6.3817 0 12.765 2.4224 17.6093 7.2665l.0001.0001 63.9016 63.9016c4.8443 4.8443 7.2665 11.2276 7.2665 17.6093s-2.4222 12.7651-7.2665 17.6094l-16.3944 16.3944c-4.8443 4.8443-11.2277 7.2665-17.6094 7.2665s-12.765-2.4222-17.6093-7.2665l-63.9016-63.9016-.0002-.0002c-4.8442-4.8442-7.2663-11.2275-7.2663-17.6092 0-6.3816 2.4221-12.7649 7.2663-17.6091l.0002-.0002zm19.2678-13.521-16.3944 16.3944-.0002.0002c-4.0505 4.0505-6.0757 9.3924-6.0757 14.7357 0 5.3434 2.0252 10.6853 6.0757 14.7358l.0002.0002 63.9016 63.9016c4.0505 4.0505 9.3925 6.0759 14.7359 6.0759s10.6855-2.0254 14.736-6.0759l16.3944-16.3944c4.0505-4.0505 6.0759-9.3926 6.0759-14.736s-2.0254-10.6854-6.0759-14.7359l-63.9016-63.9016-.0001-.0001c-4.0505-4.0504-9.3925-6.0759-14.7359-6.0759-5.3433 0-10.6853 2.0254-14.7358 6.0759z"></path><path d="m36.8463 85.586c-.7934.7934-.7934 2.08 0 2.8734s2.08.7934 2.8734 0l48.7397-48.7396c.7934-.7934.7934-2.08 0-2.8734s-2.08-.7934-2.8734 0z"></path><path d="m84.9379 133.678c-.7934.7934-.7934 2.08 0 2.8734s2.08.7934 2.8734 0l48.7397-48.7397c.7934-.7934.7934-2.08 0-2.8734s-2.08-.7934-2.8734 0z"></path></g><path d="m38.283 84.1493 45.8663-45.8663-6.4684-6.4684c-4.0505-4.0504-9.3925-6.0759-14.7359-6.0759-5.3433 0-10.6853 2.0254-14.7359 6.076l-16.3946 16.3946c-4.0505 4.0505-6.0757 9.3924-6.0757 14.7357 0 5.3434 2.0252 10.6853 6.0759 14.736z" fill="#fce4ec"></path><path d="m87.0227 41.1564-45.8663 45.8663 45.2182 45.2183 45.8664-45.8664z" fill="#e1bee7"></path><path d="m135.114 89.248-45.8663 45.8663 6.4683 6.4683c4.0505 4.0505 9.3925 6.0759 14.7359 6.0759s10.6855-2.0254 14.736-6.0759l16.3944-16.3944c4.0505-4.0505 6.0759-9.3926 6.0759-14.736s-2.0254-10.6854-6.0759-14.7359z" fill="#fce4ec"></path><path d="m72.266 37.2297 6.4683 6.4683 5.415-5.415-6.4684-6.4684c-4.0505-4.0504-9.3925-6.0759-14.7359-6.0759-4.707 0-9.413 1.5717-13.2361 4.715 1.6314-.327 3.2896-.4905 4.9477-.4906 6.3817 0 12.7649 2.4224 17.6094 7.2666z" fill="#bdabb2"></path><path d="m87.0227 41.1564-5.415 5.415 45.2183 45.2182 5.415-5.415z" fill="#aa90ae"></path><path d="m135.114 89.248-5.415 5.415 6.4683 6.4683c4.8443 4.8443 7.2665 11.2276 7.2665 17.6093 0 1.6582-.1635 3.3164-.4905 4.9477 3.1432-3.823 4.7149-8.529 4.7149-13.2361 0-5.3434-2.0254-10.6854-6.0759-14.7359z" fill="#bdabb2"></path></g></svg>